<?xml version="1.0" encoding="utf-8"?>
<!-- Generator: Adobe Illustrator 25.0.0, SVG Export Plug-In . SVG Version: 6.00 Build 0)  -->
<svg version="1.1" id="Layer_1" xmlns="http://www.w3.org/2000/svg" xmlns:xlink="http://www.w3.org/1999/xlink" x="0px" y="0px"
	 viewBox="0 0 800 800" style="enable-background:new 0 0 800 800;" xml:space="preserve">
<style type="text/css">
	.st0{fill:#E900B8;stroke:#E900B8;stroke-width:19;stroke-miterlimit:10;}
</style>
<g id="_x32_3_x2C__art_x2C__graphic_x2C__pc_x2C__ui_ux_x2C__visual">
	<g id="XMLID_858_">
		<g id="XMLID_871_">
			<g id="XMLID_22_">
				<path id="XMLID_368_" class="st0" d="M713,665H87c-29.9,0-54.2-24.3-54.2-54.2v-47.4c0-4.3,3.5-7.8,7.8-7.8h718.8
					c4.3,0,7.8,3.5,7.8,7.8v47.4C767.2,640.7,742.9,665,713,665z M48.4,571.2v39.6c0,21.3,17.3,38.5,38.5,38.5h626
					c21.3,0,38.5-17.3,38.5-38.5v-39.6H48.4z"/>
			</g>
			<g id="XMLID_21_">
				<path id="XMLID_367_" class="st0" d="M759.4,571.2H40.6c-4.3,0-7.8-3.5-7.8-7.8V214.2c0-35.8,29.1-64.8,64.8-64.8h271.9
					c4.3,0,7.8,3.5,7.8,7.8c0,4.3-3.5,7.8-7.8,7.8H97.7c-27.1,0-49.2,22.1-49.2,49.2v341.4h703.1V214.2c0-27.1-22.1-49.2-49.2-49.2
					H524.2c-4.3,0-7.8-3.5-7.8-7.8c0-4.3,3.5-7.8,7.8-7.8h178.1c35.8,0,64.8,29.1,64.8,64.8v349.2
					C767.2,567.7,763.7,571.2,759.4,571.2z"/>
			</g>
			<g id="XMLID_20_">
				<path id="XMLID_364_" class="st0" d="M277.4,334.5c-2,0-4-0.8-5.5-2.3c-2-2-2.8-5-2-7.8L303,213.9c0.4-1.2,1-2.4,2-3.3
					L487.3,28.4C499.1,16.5,514.8,10,531.5,10c16.7,0,32.4,6.5,44.2,18.3C587.5,40.2,594,55.9,594,72.5c0,16.7-6.5,32.4-18.3,44.2
					L393.4,299c-0.9,0.9-2,1.6-3.3,2l-110.5,33.1C278.9,334.4,278.1,334.5,277.4,334.5z M317.4,220.3L289,315l94.7-28.4l180.9-180.9
					c8.9-8.9,13.7-20.6,13.7-33.1s-4.9-24.3-13.7-33.1c-8.9-8.9-20.6-13.7-33.1-13.7c-12.5,0-24.3,4.9-33.1,13.7L317.4,220.3z"/>
			</g>
			<g id="XMLID_19_">
				<path id="XMLID_363_" class="st0" d="M338.1,262.4c-9,0-18-3.4-24.9-10.3c-13.7-13.7-13.7-36,0-49.7c3-3.1,8-3.1,11,0
					c3.1,3.1,3.1,8,0,11c-7.6,7.6-7.6,20,0,27.6c7.6,7.6,20,7.6,27.6,0c3.1-3,8-3,11,0c3.1,3.1,3.1,8,0,11
					C356.1,258.9,347.1,262.4,338.1,262.4z"/>
			</g>
			<g id="XMLID_18_">
				<path id="XMLID_362_" class="st0" d="M376.8,301.1c-9.4,0-18.2-3.7-24.9-10.3s-10.3-15.5-10.3-24.9s3.7-18.2,10.3-24.9
					l97.2-97.2c3-3.1,8-3.1,11,0c3.1,3.1,3.1,8,0,11L363,252.1c-3.7,3.7-5.7,8.6-5.7,13.8c0,5.2,2,10.1,5.7,13.8
					c3.7,3.7,8.6,5.7,13.8,5.7c5.2,0,10.1-2,13.8-5.7c3-3,8-3,11,0c3.1,3.1,3.1,8,0,11C395,297.4,386.2,301.1,376.8,301.1z"/>
			</g>
			<g id="XMLID_17_">
				<path id="XMLID_361_" class="st0" d="M548,141.1c-2,0-4-0.8-5.5-2.3l-77.3-77.3c-3.1-3.1-3.1-8,0-11c3-3,8-3,11,0l77.3,77.3
					c3.1,3.1,3.1,8,0,11C552,140.4,550,141.1,548,141.1z"/>
			</g>
			<g id="XMLID_16_">
				<path id="XMLID_360_" class="st0" d="M571.9,493.1h-125c-25.8,0-46.9-21-46.9-46.9s21-46.9,46.9-46.9h171.9
					c17.2,0,31.2-14,31.2-31.2v-2.4c0-17.2-14-31.2-31.2-31.2H277.4c-4.3,0-7.8-3.5-7.8-7.8c0-4.3,3.5-7.8,7.8-7.8h341.4
					c25.8,0,46.9,21,46.9,46.9v2.4c0,25.8-21,46.9-46.9,46.9H446.9c-17.2,0-31.2,14-31.2,31.2s14,31.2,31.2,31.2h125
					c4.3,0,7.8,3.5,7.8,7.8S576.2,493.1,571.9,493.1z"/>
			</g>
			<g id="XMLID_15_">
				<path id="XMLID_359_" class="st0" d="M275,500.9H40.6c-4.3,0-7.8-3.5-7.8-7.8s3.5-7.8,7.8-7.8H275c4.3,0,7.8,3.5,7.8,7.8
					S279.3,500.9,275,500.9z"/>
			</g>
			<g id="XMLID_14_">
				<path id="XMLID_358_" class="st0" d="M275,454H40.6c-4.3,0-7.8-3.5-7.8-7.8s3.5-7.8,7.8-7.8H275c4.3,0,7.8,3.5,7.8,7.8
					S279.3,454,275,454z"/>
			</g>
			<g id="XMLID_13_">
				<path id="XMLID_357_" class="st0" d="M275,407.1H40.6c-4.3,0-7.8-3.5-7.8-7.8c0-4.3,3.5-7.8,7.8-7.8H275c4.3,0,7.8,3.5,7.8,7.8
					C282.8,403.6,279.3,407.1,275,407.1z"/>
			</g>
		</g>
		<g id="XMLID_12_">
			<path id="XMLID_315_" class="st0" d="M485.9,758.7H314.1c-4.3,0-7.8-3.5-7.8-7.8v-93.8c0-4.3,3.5-7.8,7.8-7.8h171.9
				c4.3,0,7.8,3.5,7.8,7.8v93.8C493.8,755.2,490.3,758.7,485.9,758.7z M321.9,743.1h156.2V665H321.9V743.1z"/>
		</g>
		<g id="XMLID_11_">
			<path id="XMLID_312_" class="st0" d="M446.9,758.7h-93.8c-4.3,0-7.8-3.5-7.8-7.8v-93.8c0-4.3,3.5-7.8,7.8-7.8h93.8
				c4.3,0,7.8,3.5,7.8,7.8v93.8C454.7,755.2,451.2,758.7,446.9,758.7z M360.9,743.1h78.1V665h-78.1V743.1z"/>
		</g>
		<g id="XMLID_10_">
			<path id="XMLID_309_" class="st0" d="M509.4,790H290.6c-12.9,0-23.4-10.5-23.4-23.4c0-12.9,10.5-23.4,23.4-23.4h218.8
				c12.9,0,23.4,10.5,23.4,23.4C532.8,779.4,522.3,790,509.4,790z M290.6,758.7c-4.3,0-7.8,3.5-7.8,7.8s3.5,7.8,7.8,7.8h218.8
				c4.3,0,7.8-3.5,7.8-7.8s-3.5-7.8-7.8-7.8H290.6z"/>
		</g>
	</g>
</g>
<g id="Layer_1_1_">
</g>
</svg>
