<?xml version="1.0" encoding="utf-8"?>
<!-- Generator: Adobe Illustrator 25.0.0, SVG Export Plug-In . SVG Version: 6.00 Build 0)  -->
<svg version="1.1" id="Layer_1" xmlns="http://www.w3.org/2000/svg" xmlns:xlink="http://www.w3.org/1999/xlink" x="0px" y="0px"
	 viewBox="0 0 800 800" style="enable-background:new 0 0 800 800;" xml:space="preserve">
<style type="text/css">
	.st0{fill:none;stroke:#E900B8;stroke-width:66.6667;stroke-linecap:round;stroke-linejoin:round;stroke-miterlimit:133.3333;}
</style>
<path class="st0" d="M400,100H300c-55.2,0-100,44.8-100,100s44.8,100,100,100 M400,100v200 M400,100h100c55.2,0,100,44.8,100,100
	s-44.8,100-100,100 M400,300H300 M400,300h100 M400,300v200 M300,300c-55.2,0-100,44.8-100,100s44.8,100,100,100 M500,300
	c55.2,0,100,44.8,100,100s-44.8,100-100,100s-100-44.8-100-100S444.8,300,500,300z M400,500H300 M400,500v100
	c0,55.2-44.8,100-100,100c-55.2,0-100-44.8-100-100c0-55.2,44.8-100,100-100"/>
</svg>
