<?xml version="1.0" encoding="utf-8"?>
<!-- Generator: Adobe Illustrator 25.0.0, SVG Export Plug-In . SVG Version: 6.00 Build 0)  -->
<svg version="1.1" id="Layer_1" xmlns="http://www.w3.org/2000/svg" xmlns:xlink="http://www.w3.org/1999/xlink" x="0px" y="0px"
	 viewBox="0 0 42 42" style="enable-background:new 0 0 42 42;" xml:space="preserve">
<style type="text/css">
	.st0{fill:#E900B8;stroke:#E900B8;stroke-width:0.25;}
</style>
<path class="st0" d="M36.4,29.2c-0.2-0.1-0.5,0-0.6,0.1l-6.4,6.4c-0.2,0.2-0.2,0.4-0.1,0.6c0.1,0.2,0.3,0.4,0.5,0.4h6.4
	c0.3,0,0.6-0.3,0.6-0.6v-6.4C36.8,29.5,36.6,29.3,36.4,29.2z M31.2,35.6l4.4-4.4v4.4H31.2z"/>
<path class="st0" d="M40.6,19.8c-0.2-0.1-0.5,0-0.6,0.1l-1.8,1.8v-12c0-0.3-0.3-0.6-0.6-0.6h-4.5l1.6-1.6c0,0,0,0,0,0l1.6-1.6
	c0.3-0.3,0.5-0.8,0.5-1.3c0-0.5-0.2-0.9-0.5-1.3l-1.8-1.8c-0.3-0.3-0.8-0.5-1.3-0.5c-0.5,0-0.9,0.2-1.3,0.5l-1.6,1.6L28.5,5
	l-4.1,4.1H6.2V3.2c0-0.3-0.3-0.6-0.6-0.6C3.1,2.7,1,4.7,1,7.3v25c0,0,0,0.1,0,0.1c0.1,1.1,0.5,2.1,1.3,2.9c0.8,0.8,1.9,1.3,3.1,1.3
	h17.9L20,39.9c-0.2,0.2-0.2,0.4-0.1,0.6c0.1,0.2,0.3,0.4,0.5,0.4h20c0.3,0,0.6-0.3,0.6-0.6V20.3C41,20.1,40.9,19.9,40.6,19.8z
	 M32.8,2.3c0.2-0.2,0.6-0.2,0.9,0l1.8,1.8c0.2,0.2,0.2,0.6,0,0.9l-1.2,1.2l-2.7-2.7L32.8,2.3z M30.8,4.3L33.5,7l-1.1,1.1l-2.7-2.7
	L30.8,4.3z M39.8,26.9h-1.1c-0.3,0-0.6,0.3-0.6,0.6c0,0.3,0.3,0.6,0.6,0.6h1.1v1.8h-1.1c-0.3,0-0.6,0.3-0.6,0.6
	c0,0.3,0.3,0.6,0.6,0.6h1.1v1.8h-1.1c-0.3,0-0.6,0.3-0.6,0.6c0,0.3,0.3,0.6,0.6,0.6h1.1v1.8h-1.1c-0.3,0-0.6,0.3-0.6,0.6
	c0,0.3,0.3,0.6,0.6,0.6h1.1v2.8h-18l5.9-5.9c0.2-0.2,0.2-0.6,0-0.8c0,0-0.1,0-0.1-0.1c-0.2-0.2-0.5-0.1-0.7,0.1l-2.4,2.4H5.4
	c-1.8,0-3.2-1.4-3.3-3.2c0-0.1,0-0.2,0-0.3c0,0,0,0,0,0c0-0.1,0-0.1,0-0.2c0,0,0,0,0,0c0,0,0-0.1,0-0.1c0,0,0,0,0,0c0,0,0-0.1,0-0.1
	c0,0,0,0,0-0.1c0,0,0-0.1,0-0.1c0,0,0-0.1,0-0.1c0,0,0,0,0-0.1c0,0,0-0.1,0-0.1c0,0,0,0,0,0c0,0,0-0.1,0.1-0.1c0,0,0,0,0,0
	c0.5-1,1.3-1.7,2.4-1.9c0,0,0,0,0,0c0,0,0.1,0,0.1,0c0,0,0,0,0,0c0,0,0.1,0,0.1,0c0,0,0,0,0,0c0,0,0.1,0,0.1,0c0,0,0,0,0,0
	c0.1,0,0.1,0,0.2,0c0.3,0,0.6-0.3,0.6-0.6V24c0-0.3-0.3-0.6-0.6-0.6S5,23.7,5,24v3.7c-1,0.1-1.9,0.6-2.6,1.3
	c-0.1,0.1-0.1,0.2-0.2,0.2V7.3c0-1.7,1.2-3.1,2.9-3.4v17.8c0,0.3,0.3,0.6,0.6,0.6c0.3,0,0.6-0.3,0.6-0.6V10.3h17.1L20,13.5
	c-0.2,0.2-0.2,0.6,0,0.8c0.2,0.2,0.6,0.2,0.8,0l4.2-4.3c0,0,0,0,0,0l3.8-3.9l2.7,2.7l-0.3,0.3c0,0,0,0,0,0L19.5,21.1l-2.7-2.7
	l2.3-2.3c0.2-0.2,0.2-0.6,0-0.8c-0.2-0.2-0.6-0.2-0.8,0L15.5,18c0,0,0,0,0,0c0,0,0,0,0,0c0,0,0,0,0,0c0,0,0,0,0,0c0,0,0,0,0,0
	c0,0,0,0,0,0c0,0,0,0,0,0c0,0,0,0,0,0l-1.1,3.3l-0.8,2.2c0,0,0,0.1,0,0.1h-2c-0.3,0-0.6,0.3-0.6,0.6c0,0.3,0.3,0.6,0.6,0.6h16.3
	c0.3,0,0.6-0.3,0.6-0.6c0-0.3-0.3-0.6-0.6-0.6H16.1l3.6-1.3c0,0,0,0,0,0c0,0,0,0,0,0c0,0,0,0,0,0c0,0,0,0,0,0c0,0,0,0,0,0
	c0,0,0,0,0,0c0,0,0,0,0,0c0,0,0,0,0,0L32,10.3h5.1v12.6l-8.4,8.4c-0.2,0.2-0.2,0.6,0,0.8c0,0,0,0,0,0c0.1,0.1,0.2,0.1,0.4,0.1
	c0.1,0,0.3,0,0.4-0.1c0,0,0,0,0,0l0,0l10.3-10.4V26.9z M18.4,21.7l-1.7,0.6l-1.1-1.1l0.6-1.7L18.4,21.7z"/>
</svg>
